<?xml version="1.0" encoding="UTF-8" ?>
<!DOCTYPE svg PUBLIC "-//W3C//DTD SVG 1.1//EN" "http://www.w3.org/Graphics/SVG/1.1/DTD/svg11.dtd">
<svg width="664pt" height="664pt" viewBox="0 0 664 664" version="1.1" xmlns="http://www.w3.org/2000/svg">
<g id="#505f75ff">
<path fill="#505f75" opacity="1.00" d=" M 0.00 0.00 L 1.08 0.00 C 1.29 53.33 0.84 106.66 1.21 159.99 C 0.82 176.66 1.33 193.32 0.95 209.99 C 1.51 225.32 0.62 240.64 1.20 255.96 C 0.90 310.98 1.22 366.00 1.08 421.02 C 0.98 436.33 0.90 451.65 1.06 466.97 C 0.60 481.97 1.15 496.98 1.11 511.98 C 0.97 562.65 1.39 613.33 0.85 664.00 L 0.00 664.00 L 0.00 0.00 Z" />
</g>
<g id="#3f4f64ff">
</g>
<g id="#ffffffff">
<path fill="#ffffff" opacity="1.00" d=" M 183.02 94.03 C 193.55 92.05 204.27 91.38 214.96 90.82 C 291.64 90.80 368.32 90.80 445.00 90.80 C 467.23 91.01 489.92 94.01 510.20 103.58 C 526.77 111.28 541.48 123.03 552.29 137.79 C 555.57 142.12 558.43 146.75 561.25 151.39 C 564.33 157.40 567.15 163.56 569.40 169.93 C 575.69 188.58 577.68 208.42 577.55 228.02 C 577.50 288.36 577.60 348.71 577.51 409.06 C 577.37 433.12 578.77 457.58 573.06 481.18 C 569.08 499.31 560.71 516.49 548.73 530.68 C 537.19 544.94 521.73 555.72 504.89 562.79 C 487.26 570.25 468.00 572.69 449.01 573.21 C 377.01 573.33 305.02 573.20 233.02 573.24 C 207.02 573.57 179.99 572.57 156.00 561.43 C 139.84 554.16 125.33 543.23 114.18 529.44 C 99.60 511.68 91.05 489.49 88.22 466.80 C 85.69 449.99 86.49 432.95 86.41 416.02 C 86.41 351.34 86.37 286.65 86.42 221.97 C 86.76 196.34 91.45 170.06 104.86 147.85 C 111.92 135.45 121.83 124.83 133.04 116.06 C 147.71 105.00 165.02 97.60 183.02 94.03 M 164.14 205.11 C 175.94 216.93 187.09 229.38 198.97 241.13 C 212.98 241.07 227.00 241.06 241.01 241.17 C 252.04 241.84 263.51 244.55 272.18 251.76 C 282.55 260.29 287.64 273.84 288.02 287.01 C 288.51 300.20 285.38 314.29 276.12 324.15 C 267.29 333.88 253.88 338.12 241.03 338.45 C 230.54 338.53 220.05 338.46 209.56 338.52 C 209.55 350.81 209.58 363.09 209.52 375.38 C 230.42 374.88 251.96 377.20 272.15 370.41 C 292.50 364.12 309.07 348.16 317.76 328.91 C 324.92 312.32 326.91 293.71 324.42 275.87 C 321.88 256.97 313.76 238.36 299.47 225.40 C 284.73 211.39 263.98 205.54 244.02 205.24 C 217.39 205.11 190.76 205.30 164.14 205.11 M 344.74 205.13 C 344.68 247.24 344.72 289.35 344.80 331.46 C 356.87 319.38 368.95 307.16 380.91 295.08 C 381.31 277.01 380.96 258.90 381.08 240.82 C 397.71 240.83 414.34 240.85 430.97 240.84 C 437.70 240.94 444.59 240.35 451.15 242.28 C 456.31 243.62 461.15 246.27 464.94 250.04 C 478.47 264.39 477.09 290.24 461.56 302.61 C 455.88 307.35 448.43 309.73 441.07 309.71 C 425.26 309.71 409.44 309.73 393.62 309.73 C 377.06 325.80 360.95 342.36 344.62 358.68 C 344.79 390.19 344.61 421.70 344.77 453.21 C 356.57 440.78 368.83 428.79 381.09 416.82 C 381.06 392.94 381.05 369.06 381.11 345.19 C 405.32 345.29 429.55 345.00 453.76 345.32 C 461.88 336.98 470.06 328.68 478.42 320.58 C 483.96 318.08 489.43 315.14 493.75 310.79 C 502.94 301.96 507.96 289.45 509.25 276.92 C 510.61 261.91 507.67 246.25 499.56 233.41 C 491.21 220.62 477.87 211.22 462.96 207.83 C 450.22 204.51 436.97 205.24 423.95 205.16 C 397.55 205.17 371.14 205.20 344.74 205.13 M 154.51 221.51 C 154.18 301.15 154.37 380.80 154.38 460.45 C 166.66 460.37 178.94 460.55 191.22 460.37 C 191.20 420.90 191.21 381.43 191.21 341.95 C 191.33 314.54 190.99 287.12 191.41 259.72 C 179.16 246.94 166.90 234.15 154.51 221.51 M 495.40 329.33 C 487.76 337.39 479.70 345.04 472.06 353.11 C 481.14 359.03 486.64 369.35 487.53 380.05 C 488.53 391.39 486.14 403.72 478.32 412.39 C 471.03 420.68 459.84 424.51 449.02 424.82 C 432.07 424.98 415.09 424.75 398.14 424.95 C 386.19 436.65 374.59 448.70 362.66 460.42 C 385.44 460.50 408.23 460.40 431.01 460.42 C 447.82 460.48 465.27 460.98 481.10 454.41 C 498.10 447.75 511.93 433.65 518.38 416.59 C 524.97 398.49 525.82 377.95 519.24 359.73 C 514.91 347.32 506.19 336.71 495.40 329.33 Z" />
</g>
<g id="#354253ff">
</g>
<g id="#283243ff">
</g>
<g id="#042f6cff">
<path fill="#042f6c" opacity="1.00" d=" M 164.14 205.11 C 190.76 205.30 217.39 205.11 244.02 205.24 C 263.98 205.54 284.73 211.39 299.47 225.40 C 313.76 238.36 321.88 256.97 324.42 275.87 C 326.91 293.71 324.92 312.32 317.76 328.91 C 309.07 348.16 292.50 364.12 272.15 370.41 C 251.96 377.20 230.42 374.88 209.52 375.38 C 209.58 363.09 209.55 350.81 209.56 338.52 C 220.05 338.46 230.54 338.53 241.03 338.45 C 253.88 338.12 267.29 333.88 276.12 324.15 C 285.38 314.29 288.51 300.20 288.02 287.01 C 287.64 273.84 282.55 260.29 272.18 251.76 C 263.51 244.55 252.04 241.84 241.01 241.17 C 227.00 241.06 212.98 241.07 198.97 241.13 C 187.09 229.38 175.94 216.93 164.14 205.11 Z" />
<path fill="#042f6c" opacity="1.00" d=" M 344.74 205.13 C 371.14 205.20 397.55 205.17 423.95 205.16 C 436.97 205.24 450.22 204.51 462.96 207.83 C 477.87 211.22 491.21 220.62 499.56 233.41 C 507.67 246.25 510.61 261.91 509.25 276.92 C 507.96 289.45 502.94 301.96 493.75 310.79 C 489.43 315.14 483.96 318.08 478.42 320.58 C 470.06 328.68 461.88 336.98 453.76 345.32 C 429.55 345.00 405.32 345.29 381.11 345.19 C 381.05 369.06 381.06 392.94 381.09 416.82 C 368.83 428.79 356.57 440.78 344.77 453.21 C 344.61 421.70 344.79 390.19 344.62 358.68 C 360.95 342.36 377.06 325.80 393.62 309.73 C 409.44 309.73 425.26 309.71 441.07 309.71 C 448.43 309.73 455.88 307.35 461.56 302.61 C 477.09 290.24 478.47 264.39 464.94 250.04 C 461.15 246.27 456.31 243.62 451.15 242.28 C 444.59 240.35 437.70 240.94 430.97 240.84 C 414.34 240.85 397.71 240.83 381.08 240.82 C 380.96 258.90 381.31 277.01 380.91 295.08 C 368.95 307.16 356.87 319.38 344.80 331.46 C 344.72 289.35 344.68 247.24 344.74 205.13 Z" />
<path fill="#042f6c" opacity="1.00" d=" M 495.40 329.33 C 506.19 336.71 514.91 347.32 519.24 359.73 C 525.82 377.95 524.97 398.49 518.38 416.59 C 511.93 433.65 498.10 447.75 481.10 454.41 C 465.27 460.98 447.82 460.48 431.01 460.42 C 408.23 460.40 385.44 460.50 362.66 460.42 C 374.59 448.70 386.19 436.65 398.14 424.95 C 415.09 424.75 432.07 424.98 449.02 424.82 C 459.84 424.51 471.03 420.68 478.32 412.39 C 486.14 403.72 488.53 391.39 487.53 380.05 C 486.64 369.35 481.14 359.03 472.06 353.11 C 479.70 345.04 487.76 337.39 495.40 329.33 Z" />
</g>
<g id="#042f6dff">
<path fill="#042f6d" opacity="1.00" d=" M 154.51 221.51 C 166.90 234.15 179.16 246.94 191.41 259.72 C 190.99 287.12 191.33 314.54 191.21 341.95 C 191.21 381.43 191.20 420.90 191.22 460.37 C 178.94 460.55 166.66 460.37 154.38 460.45 C 154.37 380.80 154.18 301.15 154.51 221.51 Z" />
</g>
</svg>
